<?xml version="1.0" standalone="no"?>
<!DOCTYPE svg PUBLIC "-//W3C//DTD SVG 20010904//EN"
 "http://www.w3.org/TR/2001/REC-SVG-20010904/DTD/svg10.dtd">
<svg version="1.0" xmlns="http://www.w3.org/2000/svg"
 width="400.000000pt" height="90.000000pt" viewBox="0 0 400.000000 90.000000"
 preserveAspectRatio="xMidYMid meet">

<g transform="translate(0.000000,90.000000) scale(0.100000,-0.100000)"
fill="#000000" stroke="none">
<path d="M1303 820 c-115 -24 -174 -101 -153 -196 14 -61 50 -88 165 -123 109
-34 131 -48 120 -80 -13 -42 -90 -39 -101 4 -6 24 -8 25 -100 25 l-94 0 0 -25
c0 -57 62 -126 116 -129 13 0 24 -4 24 -8 0 -5 43 -8 95 -8 93 0 175 19 175
42 0 5 4 7 9 4 4 -3 17 5 29 17 47 50 56 134 19 187 -23 35 -68 67 -103 73
-10 2 -26 6 -34 10 -8 3 -42 13 -74 24 -43 13 -61 24 -67 41 -5 14 -5 21 0 17
5 -3 12 -1 16 5 11 18 64 11 77 -10 11 -18 24 -20 100 -20 85 0 88 1 88 23 0
39 -38 87 -86 108 -51 23 -159 32 -221 19z"/>
<path d="M3093 820 c-49 -10 -83 -27 -83 -40 0 -6 -5 -9 -11 -7 -20 4 -51 -50
-56 -97 -6 -54 9 -99 45 -126 14 -11 64 -32 111 -46 123 -36 131 -40 131 -68
0 -53 -74 -63 -98 -13 -13 27 -14 27 -109 27 l-96 0 6 -34 c15 -91 91 -136
233 -136 171 0 254 57 254 175 0 53 -12 80 -48 112 -31 26 -153 67 -203 68
-35 0 -36 1 -35 35 1 33 3 35 39 38 32 3 39 0 44 -17 5 -19 13 -21 99 -21 78
0 94 3 94 16 0 8 -4 13 -9 10 -5 -4 -7 2 -4 12 6 25 -42 81 -84 98 -42 18
-166 26 -220 14z"/>
<path d="M3621 820 c-57 -12 -116 -52 -137 -92 -11 -22 -15 -47 -12 -86 7 -75
38 -102 155 -137 125 -37 133 -41 133 -68 0 -31 -18 -47 -52 -47 -22 0 -33 8
-46 30 -17 30 -17 30 -111 30 l-94 0 6 -34 c14 -86 92 -136 215 -136 56 0 71
3 66 13 -5 8 -2 8 9 -2 14 -11 25 -11 63 -1 86 24 134 84 134 166 0 92 -41
127 -199 170 -47 13 -88 29 -92 36 -11 17 8 48 29 48 10 0 24 6 31 13 9 7 11
7 8 1 -4 -7 0 -14 8 -18 8 -3 15 -12 15 -21 0 -12 16 -15 96 -15 84 0 95 2 90
16 -3 9 -6 22 -6 29 0 23 -51 75 -88 91 -45 18 -163 26 -221 14z"/>
<path d="M70 549 l0 -261 193 4 c170 3 196 5 226 23 51 30 74 67 74 119 0 54
-21 89 -69 114 l-36 19 31 13 c60 24 82 121 40 174 -40 51 -62 56 -269 56
l-190 0 0 -261z m276 140 c19 -15 18 -54 -2 -73 -8 -9 -31 -16 -50 -16 l-34 0
0 56 0 57 36 -6 c20 -3 42 -11 50 -18z m11 -201 c18 -14 16 -53 -3 -72 -9 -9
-32 -16 -55 -16 l-39 0 0 56 0 57 42 -7 c23 -4 48 -12 55 -18z"/>
<path d="M600 619 c0 -104 4 -188 9 -185 4 3 6 -5 4 -17 -7 -38 33 -86 93
-114 51 -23 65 -25 157 -21 118 4 172 27 210 88 20 32 22 49 25 238 l3 202
-105 0 -106 0 0 -189 c0 -199 -4 -217 -47 -209 -35 7 -43 46 -43 226 l0 172
-100 0 -100 0 0 -191z"/>
<path d="M1670 550 l0 -260 105 0 105 0 0 260 0 260 -105 0 -105 0 0 -260z"/>
<path d="M1920 550 l0 -260 85 0 85 0 2 161 3 162 55 -161 55 -160 122 -1 123
-2 0 261 0 260 -80 0 -81 0 2 -151 c1 -140 -3 -182 -16 -148 -2 8 -27 77 -54
154 l-48 140 -127 3 -126 3 0 -261z"/>
<path d="M2490 550 l1 -260 203 0 203 0 2 65 2 65 -106 0 -105 0 0 35 0 35 90
0 91 0 -3 63 -3 62 -87 3 -88 3 0 29 0 30 100 0 100 0 0 65 0 65 -200 0 -201
0 1 -260z"/>
<path d="M80 120 c0 -33 4 -60 10 -60 6 0 10 17 10 38 l1 37 32 -38 c46 -53
57 -49 57 23 0 47 -3 60 -15 60 -11 0 -15 -11 -15 -42 l0 -42 -31 42 c-17 23
-35 42 -40 42 -5 0 -9 -27 -9 -60z"/>
<path d="M400 160 c-20 -20 -26 -56 -12 -76 9 -13 46 -34 62 -34 19 0 60 48
60 70 0 28 -35 60 -65 60 -14 0 -34 -9 -45 -20z m78 -37 c3 -34 -23 -58 -52
-47 -42 16 -23 87 22 82 22 -2 28 -9 30 -35z"/>
<path d="M700 120 c0 -33 4 -60 10 -60 6 0 10 9 10 20 0 11 7 20 15 20 8 0 20
-9 27 -20 18 -29 43 -27 26 1 -10 17 -10 23 0 26 15 6 16 45 0 61 -7 7 -29 12
-50 12 l-38 0 0 -60z m78 18 c3 -14 -3 -18 -27 -18 -25 0 -31 4 -31 21 0 16 5
20 27 17 17 -2 29 -10 31 -20z"/>
<path d="M990 170 c0 -5 9 -10 20 -10 17 0 20 -7 20 -50 0 -27 5 -50 10 -50 6
0 10 23 10 50 0 43 3 50 20 50 11 0 20 5 20 10 0 6 -22 10 -50 10 -27 0 -50
-4 -50 -10z"/>
<path d="M1281 120 c1 -32 6 -57 11 -54 4 3 8 14 8 25 0 14 7 19 30 19 25 0
30 -4 30 -25 0 -14 5 -25 10 -25 6 0 10 27 10 60 0 33 -4 60 -10 60 -5 0 -10
-11 -10 -25 0 -21 -5 -25 -30 -25 -25 0 -30 4 -30 25 0 14 -5 25 -11 25 -6 0
-9 -23 -8 -60z"/>
<path d="M1810 160 c-28 -28 -25 -64 6 -89 32 -25 44 -26 70 -5 18 15 18 15
-9 9 -29 -6 -60 10 -65 33 -5 26 19 53 46 52 41 -3 48 -1 32 10 -24 16 -59 11
-80 -10z"/>
<path d="M2115 124 c-15 -31 -23 -59 -19 -62 4 -4 9 -1 11 6 5 14 73 17 73 2
0 -5 7 -10 15 -10 12 0 13 4 2 28 -6 15 -15 30 -20 33 -5 3 -8 10 -8 15 1 17
-10 44 -19 44 -5 0 -20 -25 -35 -56z m48 -4 c4 -14 0 -20 -12 -20 -25 0 -33
11 -20 27 16 18 26 16 32 -7z"/>
<path d="M2400 121 c0 -34 4 -61 10 -61 6 0 10 9 10 20 0 11 7 20 15 20 8 0
19 -9 25 -20 6 -11 18 -20 27 -20 13 0 13 3 3 15 -11 13 -10 20 1 41 19 37 2
58 -50 62 l-41 3 0 -60z m78 17 c3 -14 -3 -18 -27 -18 -25 0 -31 4 -31 21 0
16 5 20 27 17 17 -2 29 -10 31 -20z"/>
<path d="M2710 160 c-28 -28 -25 -64 6 -89 15 -12 32 -21 39 -21 24 0 65 41
65 66 0 31 -33 64 -65 64 -14 0 -34 -9 -45 -20z m80 -21 c9 -16 8 -26 -5 -45
-19 -29 -36 -30 -60 -4 -15 17 -16 24 -7 45 15 32 56 34 72 4z"/>
<path d="M3010 120 l0 -60 45 0 c25 0 45 5 45 10 0 6 -13 10 -30 10 -29 0 -30
1 -30 50 0 38 -4 50 -15 50 -12 0 -15 -13 -15 -60z"/>
<path d="M3290 120 c0 -33 4 -60 10 -60 6 0 10 27 10 60 0 33 -4 60 -10 60 -6
0 -10 -27 -10 -60z"/>
<path d="M3510 120 c0 -47 3 -60 15 -60 11 0 15 11 15 37 l0 38 31 -38 c17
-20 35 -37 40 -37 5 0 9 27 9 60 0 33 -4 60 -10 60 -5 0 -10 -19 -10 -42 l0
-43 -30 34 c-17 18 -30 38 -30 42 0 5 -7 9 -15 9 -12 0 -15 -13 -15 -60z"/>
<path d="M3839 122 c-16 -34 -22 -59 -15 -61 5 -2 12 1 14 8 5 15 69 14 75 -1
2 -7 7 -10 11 -7 9 9 -36 119 -49 119 -5 0 -22 -26 -36 -58z m51 -9 c0 -7 -7
-13 -15 -13 -15 0 -21 31 -8 43 8 8 23 -12 23 -30z"/>
</g>
</svg>
