<?xml version="1.0" encoding="utf-8"?>
<!-- Generator: Adobe Illustrator 26.0.3, SVG Export Plug-In . SVG Version: 6.00 Build 0)  -->
<svg version="1.0" id="katman_1" xmlns="http://www.w3.org/2000/svg" xmlns:xlink="http://www.w3.org/1999/xlink" x="0px" y="0px"
	 viewBox="0 0 779.1 565.2" style="enable-background:new 0 0 779.1 565.2;" xml:space="preserve">
<style type="text/css">
	.st0{fill:#0A0B0A;}
</style>
<g id="g20733" transform="matrix(8.418 0 0 -8.418 -397.839 60.496)">
	<path id="path20735" class="st0" d="M62-25.7v7.4h-0.6c-0.1-0.1-0.5,0-0.7,0v-4.4c0-0.7-0.2-0.9-0.9-1.3L58-25
		c0.8-0.6,1.5-0.8,2.7-0.8C61.1-25.8,61.8-25.7,62-25.7 M64.7-24.1c-1.2-2.5-2.2-3.9-5.2-3.9c-2.8,0-5.1,2-5.1,4.8
		c0,2.5,1.3,4,2.8,5.1l0.1-0.1c-1.1-1.2-1.2-2.6-1.2-3.3c0.1-1.5,0.7-2.7,1.7-3.4l0.5,0.2c0.4,0.2,0.5,0.4,0.5,0.9v4.3l-0.7-0.4
		L58-19.6c0,0,2,1.3,2.5,1.5c-1.9,0.5-2.1,1.1-3.3,1.1c-1.1,0-1.9-0.8-2.6-2.4l-0.2,0.1c0.1,1.9,0.9,4.3,4.3,4.3
		c0.7,0,1.4-0.4,2.2-0.7c0.8-0.4,1.5-0.6,1.9-0.6c1.1,0,1.4,0.5,1.8,1.2l0.1-0.1c-0.1-1.3-1.1-2.8-2.4-3.1v-7.3
		c0.8,0.2,1.7,0.7,2.2,1.7L64.7-24.1L64.7-24.1z"/>
</g>
<g id="g20737" transform="matrix(8.418 0 0 -8.418 -333.516 24.489)">
	<path id="path20739" class="st0" d="M63.4-24.9c-0.1,0-0.2-0.2-0.2-0.7V-30c0-2.1-1.4-4-3.1-4.8L60-34.7c0.7,0.7,1.2,2,1.2,3.5v5.8
		l-1.1,0.7l-0.4-0.2V-30l0.8-0.5L59-31.9l-1.8,1.2c0.2,0,0.4,0.2,0.4,0.7v9.2l2.4,1.3l0.1-0.1c-0.4-0.2-0.5-0.5-0.5-1.1v-4l1.5,1.5
		C61.1-23.2,63.4-24.9,63.4-24.9z"/>
</g>
<g id="g20741" transform="matrix(8.418 0 0 -8.418 -302.837 40.001)">
	<path id="path20743" class="st0" d="M64-25.3l-1.3,2.6V-26L64-25.3z M66-24.3l-3.3-1.9v-1.5l1.5-1.1l0.8,0.7l0.1-0.1l-2.2-2
		l-2.7,1.9c0.2,0.1,0.4,0.4,0.4,0.7v3.9l3.8,2.1C64.4-21.5,66-24.3,66-24.3z"/>
</g>
<g id="g20745" transform="matrix(8.418 0 0 -8.418 82.607 62.131)">
	<path id="path20747" class="st0" d="M72.3-25.7l-1.9-1.9L68-26.1c0.2,0.2,0.4,0.4,0.4,0.8v4.6h-1.1l0.5,1.2h0.6v1.7l2.4,1.3
		l0.1-0.1c-0.1-0.4-0.4-0.5-0.4-1.1v-1.8h1.7l-0.6-1.1h-1.1v-4.8l1.3-0.6l0.5,0.5L72.3-25.7z"/>
</g>
<g id="g20749" transform="matrix(8.418 0 0 -8.418 48.286 62.131)">
	<path id="path20751" class="st0" d="M71.6-25.7l-1.9-1.9l-2.5,1.5c0.2,0.2,0.4,0.4,0.4,0.8v4.6h-1.1l0.5,1.2h0.6v1.7l2.5,1.3
		l0.1-0.1c-0.2-0.4-0.5-0.5-0.5-1.1v-1.8h1.7l-0.6-1.1h-1.1v-4.8L71-26l0.5,0.5L71.6-25.7L71.6-25.7z"/>
</g>
<g id="g20753" transform="matrix(8.418 0 0 -8.418 -31.106 62.247)">
	<path id="path20755" class="st0" d="M69.9-25.7L68-27.5l-2,1.4c0.2,0.2,0.4,0.5,0.4,0.8v9l2.4,1.3l0.1-0.1
		c-0.4-0.2-0.5-0.4-0.5-1.2v-9.1l0.8-0.6l0.6,0.4L69.9-25.7L69.9-25.7z"/>
</g>
<g id="g20757" transform="matrix(8.418 0 0 -8.418 -59.241 16.835)">
	<path id="path20759" class="st0" d="M69.3-24.8c0-1.1-0.5-1.8-1.7-1.8c-0.6,0-1.1,0.5-1.3,0.8L66.1-26v-4.6l1.1-0.8l0.7,0.7
		l0.1-0.1l-2-2l-2.4,1.7c0.4,0.1,0.5,0.2,0.5,0.8v4.1l-0.5,0.5l-0.5-0.5l-0.2,0.1l1.9,1.9l1.3-1.1v-0.5l1.4,1.5
		c0.4-0.4,0.8-0.5,1.3-0.5C69-24.8,69.2-24.8,69.3-24.8z"/>
</g>
<g id="g20761" transform="matrix(8.418 0 0 -8.418 -152.583 24.48)">
	<path id="path20763" class="st0" d="M67.3-24.9c-0.1,0-0.2-0.2-0.2-0.7V-30c0-2.1-1.4-4-3.1-4.8l-0.1,0.1c0.7,0.7,1.2,2,1.2,3.5
		v5.8L64-24.7l-0.4-0.2V-30l0.8-0.5L63-31.9l-1.8,1.2c0.1,0,0.2,0.2,0.2,0.7v9.2l2.4,1.3l0.1-0.1c-0.2-0.2-0.5-0.5-0.5-1.1v-4
		l1.5,1.4C65-23.3,67.3-24.9,67.3-24.9z"/>
</g>
<g id="g20765" transform="matrix(8.418 0 0 -8.418 107.96 39.984)">
	<path id="path20767" class="st0" d="M72.9-25.3l-1.3,2.6V-26L72.9-25.3z M74.9-24.3l-3.3-1.9v-1.5l1.5-1.1l0.8,0.7l0.1-0.1l-2.2-2
		l-2.7,1.9c0.2,0.1,0.4,0.4,0.4,0.7v3.9l3.8,2.1C73.2-21.5,74.9-24.3,74.9-24.3z"/>
</g>
<g id="g20769" transform="matrix(8.418 0 0 -8.418 -6.965 66.673)">
	<path id="path20771" class="st0" d="M70.4-25.8v5.6l-1.3,0.8V-25C69.1-25,70.4-25.8,70.4-25.8z M72.9-19.8
		c-0.2-0.1-0.4-0.4-0.4-0.8V-25l-3.4-2l-2.5,1.7c0.2,0.1,0.5,0.5,0.5,0.7v4.3l3.5,2.1L72.9-19.8C72.9-19.7,72.9-19.8,72.9-19.8
		L72.9-19.8z"/>
</g>
<g id="g20773" transform="matrix(8.418 0 0 -8.418 -125.894 65.235)">
	<path id="path20775" class="st0" d="M67.8-25.8v3.7c-0.9,0-1.3-0.9-1.3-2c0-0.9,0.4-1.7,0.9-1.9C67.5-26,67.8-25.8,67.8-25.8z
		 M67.8-21.9v1.3L67-20c-0.1-0.1-0.5-0.4-0.8-0.4c-0.5,0-0.7,0.2-0.8,0.2c0.1-0.6,0.8-1.4,1.5-2C67.3-21.9,67.6-21.9,67.8-21.9
		 M71.4-25.3l-1.9-1.9L67.8-26l-1.7-1.2c-0.8,0.4-1.7,1.2-1.7,2.5s0.7,2.1,2.1,2.6c-0.8,0.7-1.8,1.8-1.8,2.7c0,0.5,0.4,0.9,0.8,0.9
		c0.5,0,0.8-0.2,0.8-0.7c0-0.4-0.4-0.7-0.8-0.7c0.1,0,0.2-0.1,0.5-0.1c0.6,0,1.3,0.9,1.8,1.7l2.2-1.4C70-20.1,70-20.4,70-21.1v-4
		l0.8-0.6C70.8-25.7,71.4-25.3,71.4-25.3z"/>
</g>
<g id="g20777" transform="matrix(8.418 0 0 -8.418 -220.921 64.672)">
	<path id="path20779" class="st0" d="M65.8-25.8v8.4c-0.4,0.2-0.8,0.7-1.1,1.1v-5.3c0-0.9,0-1.2-0.8-1.7l-1.7-1.1
		C63.1-25.2,64.1-25.7,65.8-25.8 M69.2-24.7c-1.4-2.1-2.8-2.8-5.3-2.8c-3.1,0-5.2,2.7-5.2,6c0,3.5,2.5,5.6,4.3,5.9l0.1-0.1
		c-1.3-0.8-2.1-2.4-2.1-5.1c0-1.4,0.5-2.6,1.2-3.3l0.2,0.1c0.2,0.2,0.4,0.4,0.4,0.9v5.9l-0.6-0.4L62-17.3l4.1,2.5
		c0.6-0.9,1.5-1.2,2.6-1.1c-0.1-1.1-0.9-1.7-1.9-1.7c-0.4,0-0.7,0.1-0.8,0.1v-8.3c1.7,0.1,2.4,0.6,3.2,1.2V-24.7z"/>
</g>
<g id="g20781" transform="matrix(8.418 0 0 -8.418 546.773 16.835)">
	<path id="path20783" class="st0" d="M14.1-38.2c0-1.1-0.5-1.8-1.7-1.8c-0.6,0-1.1,0.5-1.3,0.8l-0.2-0.2V-44l1.1-0.8l0.7,0.7
		l0.1-0.1l-2-2l-2.4,1.7c0.4,0.1,0.5,0.2,0.5,0.8v4.1l-0.5,0.5l-0.5-0.5l-0.2,0.1l1.9,1.9l1.3-1.1v-0.5l1.4,1.5
		c0.4-0.4,0.8-0.5,1.3-0.5C13.8-38.2,13.9-38.2,14.1-38.2z"/>
</g>
<g id="g20785" transform="matrix(8.418 0 0 -8.418 458.959 22.056)">
	<path id="path20787" class="st0" d="M12.2-38.3c-0.2-0.1-0.5-0.4-0.5-0.8v-4.6l-3.4-2l-2.5,1.7c0.4,0.2,0.5,0.5,0.5,0.9v3.4
		c0,1.3-0.8,1.3-0.8,2.4c0,1.2,1.4,1.5,2.4,1.5l0.1-0.2c-0.4,0-0.8-0.2-0.8-0.6c0-0.8,1.2-0.8,1.2-2.4v-4.4l1.3-0.9v5.6l-0.8,0.6
		l1.4,1.4L12.2-38.3L12.2-38.3z"/>
</g>
<g id="g20789" transform="matrix(8.418 0 0 -8.418 408.37 16.835)">
	<path id="path20791" class="st0" d="M11.1-38.2c0-1.1-0.6-1.8-1.7-1.8c-0.6,0-1.1,0.5-1.3,0.8l-0.2-0.2V-44l1.1-0.8l0.7,0.7
		l0.1-0.2l-2-2l-2.4,1.7c0.4,0.2,0.5,0.4,0.5,0.9v4.1l-0.5,0.5l-0.5-0.5l-0.2,0.1l1.9,1.9l1.3-1.1v-0.5l1.4,1.5
		c0.4-0.4,0.8-0.5,1.3-0.5C10.8-38.2,11-38.2,11.1-38.2L11.1-38.2z"/>
</g>
<g id="g20793" transform="matrix(8.418 0 0 -8.418 487.756 39.984)">
	<path id="path20795" class="st0" d="M12.8-38.7l-1.3,2.6v-3.3L12.8-38.7z M14.8-37.8l-3.3-1.9v-1.5l1.5-1.1l0.8,0.7l0.1-0.1l-2.2-2
		L9-41.8c0.2,0.1,0.4,0.4,0.4,0.7v3.9l3.8,2.1C13.1-35,14.8-37.8,14.8-37.8z"/>
</g>
<g id="g20797" transform="matrix(8.418 0 0 -8.418 349.336 39.984)">
	<path id="path20799" class="st0" d="M9.8-38.7l-1.3,2.6v-3.3L9.8-38.7z M11.7-37.8l-3.2-1.9v-1.5l1.5-1.1l0.8,0.7l0.1-0.1l-2.2-2
		l-2.8,1.9c0.2,0.1,0.5,0.5,0.5,0.7v3.9l3.8,2.1C10.2-35,11.7-37.8,11.7-37.8z"/>
</g>
<g id="g20801" transform="matrix(8.418 0 0 -8.418 302.93 64.812)">
	<path id="path20803" class="st0" d="M8.8-39.3v2L8-36.6c-0.7-0.9-2-2.8-2-2.8c0.5,0.2,1.1,0.5,1.5,0.5C7.9-38.9,8.6-39,8.8-39.3
		 M9.4-34c-0.2-0.1-0.5-0.1-0.7-0.1c-0.6,0-0.9,0.4-1.3,0.7v-2l0.8-0.5C8.7-35.1,8.9-34.7,9.4-34 M10.9-38.8l-3.2-1.9
		c-0.5,0.4-0.8,0.5-1.4,0.5c-0.4,0-0.8-0.1-1.2-0.5L5-40.6c0.6,0.8,2.1,3.2,2.1,3.2l-1.8,1.1v2.2l3.3,2c0.2-0.4,0.6-0.6,1.1-0.6
		c0.6,0,0.8,0.2,0.8,0.6c0,0.1,0,0.2-0.1,0.4l0.4,0.1c0-0.1,0.1-0.2,0.1-0.4c0-0.2,0-0.4-0.2-0.7L9-35l1.9-1.3L10.9-38.8L10.9-38.8z
		"/>
</g>
<g id="g20805" transform="matrix(8.418 0 0 -8.418 256.532 66.895)">
	<path id="path20807" class="st0" d="M7.8-39.3v5.3l-1.2,0.7l-0.2-0.2v-4.7C6.4-38.2,7.8-39.3,7.8-39.3z M10.3-33.2
		c-0.2-0.2-0.4-0.5-0.4-0.9v-4.4l-3.4-2L4-38.7c0.4,0.2,0.4,0.5,0.4,0.9v8.5L6.7-28l0.1-0.1c-0.2-0.2-0.5-0.4-0.5-1.1v-4.1l1.5,1.5
		C7.9-31.8,10.3-33.2,10.3-33.2z"/>
</g>
<g id="g20809" transform="matrix(8.418 0 0 -8.418 196.407 65.013)">
	<path id="path20811" class="st0" d="M6.5-39.3v9.1c-0.4,0.2-0.7,0.5-1.1,0.5v-5.4c0-1.1-0.1-1.2-1.1-1.7l-1.5-1.1
		c0.8-0.8,1.9-1.4,3.2-1.4H6.5 M9-35.4c-0.2,0.1-0.7,0.1-1.1,0.1c-0.5,0-0.8-0.1-1.2-0.1v-3.8C8.3-38.9,8.9-37.5,9-35.4 M9.1-34.7
		v0.5c-0.4-0.1-0.8-0.1-1.2-0.1c-0.5,0-0.8,0.1-1.2,0.1v-1.1c0.2,0.1,0.7,0.1,1.2,0.1c0.4,0,0.8,0,1.2-0.1C9-35,9.1-34.9,9.1-34.7
		 M9-34.1c-0.1,1.8-1.2,3.1-2.2,3.8V-34c0.4-0.1,0.7-0.2,1.2-0.2C8.3-34.2,8.8-34.1,9-34.1 M10.8-33.7c0-3.9-2.6-7.2-5.8-7.2
		c-3.4,0-5.6,2.8-5.6,5.9c0,3.7,2.5,5.6,4,6.1L3.6-29c-1.2-0.9-1.9-2.7-1.9-5.6c0-1.3,0.4-2.2,1.1-3.1l0.4,0.1
		c0.5,0.2,0.5,0.6,0.5,0.9v5.8l-0.7-0.4v0.2l4.4,2.6C8.8-28.8,10.8-30.4,10.8-33.7"/>
</g>
</svg>
